<mxfile host="app.diagrams.net" agent="Mozilla/5.0 (Windows NT 10.0; Win64; x64) AppleWebKit/537.36 (KHTML, like Gecko) Chrome/132.0.0.0 Safari/537.36" version="26.0.11">
  <diagram name="Страница — 1" id="ucHJfLglwXPy9O8L-udw">
    <mxGraphModel dx="568" dy="301" grid="1" gridSize="10" guides="1" tooltips="1" connect="1" arrows="1" fold="1" page="1" pageScale="1" pageWidth="827" pageHeight="1169" math="0" shadow="0">
      <root>
        <mxCell id="0" />
        <mxCell id="1" parent="0" />
        <mxCell id="rPGyqzHHahrMTbRgy63A-1" value="рецепт" style="whiteSpace=wrap;html=1;align=center;" parent="1" vertex="1">
          <mxGeometry x="160" y="90" width="100" height="40" as="geometry" />
        </mxCell>
        <mxCell id="rPGyqzHHahrMTbRgy63A-2" value="название" style="ellipse;whiteSpace=wrap;html=1;align=center;" parent="1" vertex="1">
          <mxGeometry x="130" y="20" width="100" height="40" as="geometry" />
        </mxCell>
        <mxCell id="rPGyqzHHahrMTbRgy63A-3" value="&lt;font style=&quot;font-size: 10px;&quot;&gt;описание приготовления&lt;/font&gt;" style="ellipse;whiteSpace=wrap;html=1;align=center;" parent="1" vertex="1">
          <mxGeometry x="30" y="50" width="100" height="40" as="geometry" />
        </mxCell>
        <mxCell id="rPGyqzHHahrMTbRgy63A-4" value="время готовки" style="ellipse;whiteSpace=wrap;html=1;align=center;" parent="1" vertex="1">
          <mxGeometry x="20" y="110" width="100" height="40" as="geometry" />
        </mxCell>
        <mxCell id="rPGyqzHHahrMTbRgy63A-5" value="сложность" style="ellipse;whiteSpace=wrap;html=1;align=center;" parent="1" vertex="1">
          <mxGeometry x="100" y="150" width="100" height="40" as="geometry" />
        </mxCell>
        <mxCell id="rPGyqzHHahrMTbRgy63A-6" value="блюдо" style="whiteSpace=wrap;html=1;align=center;" parent="1" vertex="1">
          <mxGeometry x="360" y="90" width="90" height="40" as="geometry" />
        </mxCell>
        <mxCell id="rPGyqzHHahrMTbRgy63A-7" value="" style="endArrow=none;html=1;rounded=0;fontSize=12;startSize=8;endSize=8;curved=1;entryX=0.5;entryY=1;entryDx=0;entryDy=0;" parent="1" target="rPGyqzHHahrMTbRgy63A-1" edge="1">
          <mxGeometry relative="1" as="geometry">
            <mxPoint x="160" y="150" as="sourcePoint" />
            <mxPoint x="320" y="150" as="targetPoint" />
          </mxGeometry>
        </mxCell>
        <mxCell id="rPGyqzHHahrMTbRgy63A-8" value="" style="endArrow=none;html=1;rounded=0;fontSize=12;startSize=8;endSize=8;curved=1;exitX=1;exitY=0;exitDx=0;exitDy=0;" parent="1" source="rPGyqzHHahrMTbRgy63A-4" edge="1">
          <mxGeometry relative="1" as="geometry">
            <mxPoint x="50" y="110" as="sourcePoint" />
            <mxPoint x="160" y="110" as="targetPoint" />
          </mxGeometry>
        </mxCell>
        <mxCell id="rPGyqzHHahrMTbRgy63A-9" value="" style="endArrow=none;html=1;rounded=0;fontSize=12;startSize=8;endSize=8;curved=1;exitX=1;exitY=1;exitDx=0;exitDy=0;entryX=0;entryY=0.25;entryDx=0;entryDy=0;" parent="1" source="rPGyqzHHahrMTbRgy63A-3" target="rPGyqzHHahrMTbRgy63A-1" edge="1">
          <mxGeometry relative="1" as="geometry">
            <mxPoint x="70" y="120" as="sourcePoint" />
            <mxPoint x="230" y="120" as="targetPoint" />
          </mxGeometry>
        </mxCell>
        <mxCell id="rPGyqzHHahrMTbRgy63A-10" value="" style="endArrow=none;html=1;rounded=0;fontSize=12;startSize=8;endSize=8;curved=1;exitX=0.5;exitY=1;exitDx=0;exitDy=0;entryX=0.5;entryY=0;entryDx=0;entryDy=0;" parent="1" source="rPGyqzHHahrMTbRgy63A-2" target="rPGyqzHHahrMTbRgy63A-1" edge="1">
          <mxGeometry relative="1" as="geometry">
            <mxPoint x="120" y="120" as="sourcePoint" />
            <mxPoint x="280" y="120" as="targetPoint" />
          </mxGeometry>
        </mxCell>
        <mxCell id="rPGyqzHHahrMTbRgy63A-11" value="" style="fontSize=12;html=1;endArrow=ERmandOne;startArrow=ERmandOne;rounded=0;startSize=8;endSize=8;exitX=1;exitY=0.5;exitDx=0;exitDy=0;" parent="1" source="rPGyqzHHahrMTbRgy63A-1" edge="1">
          <mxGeometry width="100" height="100" relative="1" as="geometry">
            <mxPoint x="300" y="210" as="sourcePoint" />
            <mxPoint x="360" y="110" as="targetPoint" />
          </mxGeometry>
        </mxCell>
        <mxCell id="rPGyqzHHahrMTbRgy63A-13" value="название" style="ellipse;whiteSpace=wrap;html=1;align=center;" parent="1" vertex="1">
          <mxGeometry x="280" y="40" width="80" height="30" as="geometry" />
        </mxCell>
        <mxCell id="rPGyqzHHahrMTbRgy63A-15" value="продукт" style="whiteSpace=wrap;html=1;align=center;" parent="1" vertex="1">
          <mxGeometry x="610" y="110" width="100" height="40" as="geometry" />
        </mxCell>
        <mxCell id="rPGyqzHHahrMTbRgy63A-16" value="название" style="ellipse;whiteSpace=wrap;html=1;align=center;" parent="1" vertex="1">
          <mxGeometry x="610" y="50" width="100" height="40" as="geometry" />
        </mxCell>
        <mxCell id="rPGyqzHHahrMTbRgy63A-17" value="цена за единицу" style="ellipse;whiteSpace=wrap;html=1;align=center;" parent="1" vertex="1">
          <mxGeometry x="710" y="20" width="100" height="40" as="geometry" />
        </mxCell>
        <mxCell id="rPGyqzHHahrMTbRgy63A-18" value="срок годности" style="ellipse;whiteSpace=wrap;html=1;align=center;" parent="1" vertex="1">
          <mxGeometry x="720" y="80" width="100" height="40" as="geometry" />
        </mxCell>
        <mxCell id="rPGyqzHHahrMTbRgy63A-19" value="" style="endArrow=none;html=1;rounded=0;fontSize=12;startSize=8;endSize=8;curved=1;exitX=0.5;exitY=1;exitDx=0;exitDy=0;entryX=0.25;entryY=0;entryDx=0;entryDy=0;" parent="1" source="rPGyqzHHahrMTbRgy63A-13" target="rPGyqzHHahrMTbRgy63A-6" edge="1">
          <mxGeometry relative="1" as="geometry">
            <mxPoint x="330" y="150" as="sourcePoint" />
            <mxPoint x="490" y="150" as="targetPoint" />
          </mxGeometry>
        </mxCell>
        <mxCell id="rPGyqzHHahrMTbRgy63A-20" value="" style="endArrow=none;html=1;rounded=0;fontSize=12;startSize=8;endSize=8;curved=1;entryX=0;entryY=1;entryDx=0;entryDy=0;exitX=0.5;exitY=0;exitDx=0;exitDy=0;" parent="1" source="rPGyqzHHahrMTbRgy63A-6" target="rPGyqzHHahrMTbRgy63A-39" edge="1">
          <mxGeometry relative="1" as="geometry">
            <mxPoint x="330" y="150" as="sourcePoint" />
            <mxPoint x="428.64466094067257" y="74.14213562373106" as="targetPoint" />
          </mxGeometry>
        </mxCell>
        <mxCell id="rPGyqzHHahrMTbRgy63A-21" value="" style="edgeStyle=entityRelationEdgeStyle;fontSize=12;html=1;endArrow=ERoneToMany;rounded=0;startSize=8;endSize=8;curved=1;exitX=1;exitY=0.5;exitDx=0;exitDy=0;entryX=0;entryY=0.5;entryDx=0;entryDy=0;" parent="1" source="rPGyqzHHahrMTbRgy63A-6" target="rPGyqzHHahrMTbRgy63A-15" edge="1">
          <mxGeometry width="100" height="100" relative="1" as="geometry">
            <mxPoint x="500" y="200" as="sourcePoint" />
            <mxPoint x="600" y="100" as="targetPoint" />
          </mxGeometry>
        </mxCell>
        <mxCell id="rPGyqzHHahrMTbRgy63A-22" value="" style="endArrow=none;html=1;rounded=0;fontSize=12;startSize=8;endSize=8;curved=1;entryX=0.5;entryY=0;entryDx=0;entryDy=0;" parent="1" target="rPGyqzHHahrMTbRgy63A-15" edge="1">
          <mxGeometry relative="1" as="geometry">
            <mxPoint x="660" y="90" as="sourcePoint" />
            <mxPoint x="780" y="90" as="targetPoint" />
          </mxGeometry>
        </mxCell>
        <mxCell id="rPGyqzHHahrMTbRgy63A-23" value="" style="endArrow=none;html=1;rounded=0;fontSize=12;startSize=8;endSize=8;curved=1;exitX=0.75;exitY=0;exitDx=0;exitDy=0;entryX=0.5;entryY=1;entryDx=0;entryDy=0;" parent="1" source="rPGyqzHHahrMTbRgy63A-15" target="rPGyqzHHahrMTbRgy63A-17" edge="1">
          <mxGeometry relative="1" as="geometry">
            <mxPoint x="620" y="90" as="sourcePoint" />
            <mxPoint x="780" y="90" as="targetPoint" />
          </mxGeometry>
        </mxCell>
        <mxCell id="rPGyqzHHahrMTbRgy63A-24" value="" style="endArrow=none;html=1;rounded=0;fontSize=12;startSize=8;endSize=8;curved=1;exitX=1;exitY=0.5;exitDx=0;exitDy=0;entryX=0;entryY=1;entryDx=0;entryDy=0;" parent="1" source="rPGyqzHHahrMTbRgy63A-15" target="rPGyqzHHahrMTbRgy63A-18" edge="1">
          <mxGeometry relative="1" as="geometry">
            <mxPoint x="620" y="90" as="sourcePoint" />
            <mxPoint x="780" y="90" as="targetPoint" />
          </mxGeometry>
        </mxCell>
        <mxCell id="rPGyqzHHahrMTbRgy63A-25" value="пищевая ценность (БЖУ)" style="whiteSpace=wrap;html=1;align=center;" parent="1" vertex="1">
          <mxGeometry x="540" y="300" width="100" height="40" as="geometry" />
        </mxCell>
        <mxCell id="rPGyqzHHahrMTbRgy63A-26" value="жиры&lt;span style=&quot;color: rgba(0, 0, 0, 0); font-family: monospace; font-size: 0px; text-align: start; text-wrap-mode: nowrap;&quot;&gt;%3CmxGraphModel%3E%3Croot%3E%3CmxCell%20id%3D%220%22%2F%3E%3CmxCell%20id%3D%221%22%20parent%3D%220%22%2F%3E%3CmxCell%20id%3D%222%22%20value%3D%22%D0%B1%D0%B5%D0%BB%D0%BA%D0%B8%22%20style%3D%22ellipse%3BwhiteSpace%3Dwrap%3Bhtml%3D1%3Balign%3Dcenter%3B%22%20vertex%3D%221%22%20parent%3D%221%22%3E%3CmxGeometry%20x%3D%22440%22%20y%3D%22380%22%20width%3D%2280%22%20height%3D%2230%22%20as%3D%22geometry%22%2F%3E%3C%2FmxCell%3E%3C%2Froot%3E%3C%2FmxGraphModel%3E&lt;/span&gt;" style="ellipse;whiteSpace=wrap;html=1;align=center;" parent="1" vertex="1">
          <mxGeometry x="640" y="380" width="80" height="30" as="geometry" />
        </mxCell>
        <mxCell id="rPGyqzHHahrMTbRgy63A-27" value="белки" style="ellipse;whiteSpace=wrap;html=1;align=center;" parent="1" vertex="1">
          <mxGeometry x="530" y="370" width="80" height="30" as="geometry" />
        </mxCell>
        <mxCell id="rPGyqzHHahrMTbRgy63A-28" value="углеводы" style="ellipse;whiteSpace=wrap;html=1;align=center;" parent="1" vertex="1">
          <mxGeometry x="700" y="330" width="80" height="30" as="geometry" />
        </mxCell>
        <mxCell id="rPGyqzHHahrMTbRgy63A-29" value="калорийность" style="ellipse;whiteSpace=wrap;html=1;align=center;" parent="1" vertex="1">
          <mxGeometry x="670" y="270" width="90" height="40" as="geometry" />
        </mxCell>
        <mxCell id="rPGyqzHHahrMTbRgy63A-30" value="" style="endArrow=none;html=1;rounded=0;fontSize=12;startSize=8;endSize=8;curved=1;exitX=0.5;exitY=0;exitDx=0;exitDy=0;entryX=0.5;entryY=1;entryDx=0;entryDy=0;" parent="1" source="rPGyqzHHahrMTbRgy63A-27" target="rPGyqzHHahrMTbRgy63A-25" edge="1">
          <mxGeometry relative="1" as="geometry">
            <mxPoint x="540" y="340" as="sourcePoint" />
            <mxPoint x="700" y="340" as="targetPoint" />
          </mxGeometry>
        </mxCell>
        <mxCell id="rPGyqzHHahrMTbRgy63A-31" value="" style="endArrow=none;html=1;rounded=0;fontSize=12;startSize=8;endSize=8;curved=1;exitX=0;exitY=0;exitDx=0;exitDy=0;entryX=0.75;entryY=1;entryDx=0;entryDy=0;" parent="1" source="rPGyqzHHahrMTbRgy63A-26" target="rPGyqzHHahrMTbRgy63A-25" edge="1">
          <mxGeometry relative="1" as="geometry">
            <mxPoint x="540" y="340" as="sourcePoint" />
            <mxPoint x="700" y="340" as="targetPoint" />
          </mxGeometry>
        </mxCell>
        <mxCell id="rPGyqzHHahrMTbRgy63A-32" value="" style="endArrow=none;html=1;rounded=0;fontSize=12;startSize=8;endSize=8;curved=1;exitX=1;exitY=0.75;exitDx=0;exitDy=0;entryX=0;entryY=0.5;entryDx=0;entryDy=0;" parent="1" source="rPGyqzHHahrMTbRgy63A-25" target="rPGyqzHHahrMTbRgy63A-28" edge="1">
          <mxGeometry relative="1" as="geometry">
            <mxPoint x="540" y="340" as="sourcePoint" />
            <mxPoint x="700" y="340" as="targetPoint" />
          </mxGeometry>
        </mxCell>
        <mxCell id="rPGyqzHHahrMTbRgy63A-33" value="" style="endArrow=none;html=1;rounded=0;fontSize=12;startSize=8;endSize=8;curved=1;exitX=1.003;exitY=0.366;exitDx=0;exitDy=0;exitPerimeter=0;entryX=0;entryY=1;entryDx=0;entryDy=0;" parent="1" source="rPGyqzHHahrMTbRgy63A-25" target="rPGyqzHHahrMTbRgy63A-29" edge="1">
          <mxGeometry relative="1" as="geometry">
            <mxPoint x="540" y="340" as="sourcePoint" />
            <mxPoint x="700" y="340" as="targetPoint" />
          </mxGeometry>
        </mxCell>
        <mxCell id="rPGyqzHHahrMTbRgy63A-34" value="" style="edgeStyle=orthogonalEdgeStyle;fontSize=12;html=1;endArrow=ERmandOne;startArrow=ERmandOne;rounded=0;startSize=8;endSize=8;exitX=0.75;exitY=1;exitDx=0;exitDy=0;entryX=0;entryY=0.75;entryDx=0;entryDy=0;" parent="1" source="rPGyqzHHahrMTbRgy63A-6" target="rPGyqzHHahrMTbRgy63A-25" edge="1">
          <mxGeometry width="100" height="100" relative="1" as="geometry">
            <mxPoint x="470" y="300" as="sourcePoint" />
            <mxPoint x="570" y="200" as="targetPoint" />
          </mxGeometry>
        </mxCell>
        <mxCell id="rPGyqzHHahrMTbRgy63A-35" value="" style="edgeStyle=orthogonalEdgeStyle;fontSize=12;html=1;endArrow=ERmandOne;startArrow=ERmandOne;rounded=0;startSize=8;endSize=8;entryX=0.75;entryY=1;entryDx=0;entryDy=0;" parent="1" edge="1">
          <mxGeometry width="100" height="100" relative="1" as="geometry">
            <mxPoint x="610.0000000000001" y="300" as="sourcePoint" />
            <mxPoint x="675.1" y="150" as="targetPoint" />
            <Array as="points">
              <mxPoint x="610" y="250" />
              <mxPoint x="675" y="250" />
            </Array>
          </mxGeometry>
        </mxCell>
        <mxCell id="rPGyqzHHahrMTbRgy63A-38" style="edgeStyle=none;curved=1;rounded=0;orthogonalLoop=1;jettySize=auto;html=1;entryX=0.5;entryY=0;entryDx=0;entryDy=0;fontSize=12;startSize=8;endSize=8;" parent="1" edge="1">
          <mxGeometry relative="1" as="geometry">
            <mxPoint x="250" y="270" as="sourcePoint" />
            <mxPoint x="250" y="270" as="targetPoint" />
          </mxGeometry>
        </mxCell>
        <mxCell id="rPGyqzHHahrMTbRgy63A-39" value="фотография" style="ellipse;whiteSpace=wrap;html=1;align=center;dashed=1;" parent="1" vertex="1">
          <mxGeometry x="430" y="10" width="100" height="40" as="geometry" />
        </mxCell>
        <mxCell id="rPGyqzHHahrMTbRgy63A-40" value="цена за единицу" style="ellipse;whiteSpace=wrap;html=1;align=center;dashed=1;" parent="1" vertex="1">
          <mxGeometry x="710" y="20" width="100" height="40" as="geometry" />
        </mxCell>
        <mxCell id="rPGyqzHHahrMTbRgy63A-43" value="категория" style="ellipse;whiteSpace=wrap;html=1;align=center;" parent="1" vertex="1">
          <mxGeometry x="330" y="10" width="100" height="30" as="geometry" />
        </mxCell>
        <mxCell id="rPGyqzHHahrMTbRgy63A-44" value="" style="endArrow=none;html=1;rounded=0;fontSize=12;startSize=8;endSize=8;curved=1;exitX=0.381;exitY=0.02;exitDx=0;exitDy=0;exitPerimeter=0;entryX=0.5;entryY=1;entryDx=0;entryDy=0;" parent="1" source="rPGyqzHHahrMTbRgy63A-6" target="rPGyqzHHahrMTbRgy63A-43" edge="1">
          <mxGeometry relative="1" as="geometry">
            <mxPoint x="330" y="40" as="sourcePoint" />
            <mxPoint x="490" y="40" as="targetPoint" />
          </mxGeometry>
        </mxCell>
        <mxCell id="RehvR01BkvxHcqGkJnXM-1" value="меню" style="whiteSpace=wrap;html=1;align=center;" parent="1" vertex="1">
          <mxGeometry x="170" y="290" width="100" height="40" as="geometry" />
        </mxCell>
        <mxCell id="RehvR01BkvxHcqGkJnXM-2" value="название" style="ellipse;whiteSpace=wrap;html=1;align=center;" parent="1" vertex="1">
          <mxGeometry x="30" y="300" width="100" height="40" as="geometry" />
        </mxCell>
        <mxCell id="RehvR01BkvxHcqGkJnXM-3" value="дата начала действия" style="ellipse;whiteSpace=wrap;html=1;align=center;" parent="1" vertex="1">
          <mxGeometry x="70" y="350" width="100" height="40" as="geometry" />
        </mxCell>
        <mxCell id="RehvR01BkvxHcqGkJnXM-4" value="дата окончания действия" style="ellipse;whiteSpace=wrap;html=1;align=center;" parent="1" vertex="1">
          <mxGeometry x="190" y="360" width="100" height="40" as="geometry" />
        </mxCell>
        <mxCell id="RehvR01BkvxHcqGkJnXM-5" value="" style="endArrow=none;html=1;rounded=0;entryX=0;entryY=0.5;entryDx=0;entryDy=0;" parent="1" target="RehvR01BkvxHcqGkJnXM-1" edge="1">
          <mxGeometry relative="1" as="geometry">
            <mxPoint x="130" y="319.55" as="sourcePoint" />
            <mxPoint x="290" y="319.55" as="targetPoint" />
          </mxGeometry>
        </mxCell>
        <mxCell id="RehvR01BkvxHcqGkJnXM-6" value="" style="endArrow=none;html=1;rounded=0;exitX=1;exitY=0;exitDx=0;exitDy=0;entryX=0.25;entryY=1;entryDx=0;entryDy=0;" parent="1" source="RehvR01BkvxHcqGkJnXM-3" target="RehvR01BkvxHcqGkJnXM-1" edge="1">
          <mxGeometry relative="1" as="geometry">
            <mxPoint x="150" y="350" as="sourcePoint" />
            <mxPoint x="310" y="350" as="targetPoint" />
          </mxGeometry>
        </mxCell>
        <mxCell id="RehvR01BkvxHcqGkJnXM-7" value="" style="endArrow=none;html=1;rounded=0;exitX=0.5;exitY=0;exitDx=0;exitDy=0;entryX=0.5;entryY=1;entryDx=0;entryDy=0;" parent="1" source="RehvR01BkvxHcqGkJnXM-4" target="RehvR01BkvxHcqGkJnXM-1" edge="1">
          <mxGeometry relative="1" as="geometry">
            <mxPoint x="280" y="344.55" as="sourcePoint" />
            <mxPoint x="440" y="344.55" as="targetPoint" />
          </mxGeometry>
        </mxCell>
        <mxCell id="RehvR01BkvxHcqGkJnXM-8" value="" style="edgeStyle=orthogonalEdgeStyle;fontSize=12;html=1;endArrow=ERmany;startArrow=ERmany;rounded=0;exitX=1;exitY=0.5;exitDx=0;exitDy=0;" parent="1" source="RehvR01BkvxHcqGkJnXM-1" edge="1">
          <mxGeometry width="100" height="100" relative="1" as="geometry">
            <mxPoint x="290" y="230" as="sourcePoint" />
            <mxPoint x="390" y="130" as="targetPoint" />
          </mxGeometry>
        </mxCell>
      </root>
    </mxGraphModel>
  </diagram>
</mxfile>
